<?xml version="1.0" encoding="utf-8"?>
<!-- Generator: Adobe Illustrator 16.0.0, SVG Export Plug-In . SVG Version: 6.00 Build 0)  -->
<!DOCTYPE svg PUBLIC "-//W3C//DTD SVG 1.1//EN" "http://www.w3.org/Graphics/SVG/1.1/DTD/svg11.dtd">
<svg version="1.1" id="Capa_1" xmlns="http://www.w3.org/2000/svg" xmlns:xlink="http://www.w3.org/1999/xlink" x="0px" y="0px"
	 width="380px" height="380px" viewBox="0 0 380 380" enable-background="new 0 0 380 380" xml:space="preserve">
<g>
	<polygon fill="#FFFFFF" stroke="#000000" stroke-miterlimit="10" points="128.794,136.894 146.871,255.066 151.458,255.066 
		135.539,136.894 	"/>
	<polygon fill="#FFFFFF" stroke="#000000" stroke-miterlimit="10" points="167.376,136.894 172.232,255.066 176.28,255.066 
		171.828,135.208 	"/>
	<polygon fill="#FFFFFF" stroke="#000000" stroke-miterlimit="10" points="204.339,136.894 199.752,255.066 203.26,255.066 
		207.576,136.894 	"/>
	<polygon fill="#FFFFFF" stroke="#000000" stroke-miterlimit="10" points="243.46,136.894 225.652,253.447 228.959,253.447 
		246.697,136.894 	"/>
	<polygon fill="#FFFFFF" stroke="#000000" stroke-miterlimit="10" points="280.154,135.208 248.587,258.035 254.792,255.066 
		283.661,136.894 	"/>
	<polygon fill="#FFFFFF" stroke="#000000" stroke-miterlimit="10" points="319.545,136.894 275.298,256.416 281.771,256.416 
		322.243,136.894 	"/>
</g>
<polygon fill="#FFFFFF" stroke="#000000" stroke-miterlimit="10" points="118.542,190.045 325.751,190.045 322.514,203.266 
	118.542,203.266 "/>
<polygon fill="#FFFFFF" stroke="#000000" stroke-miterlimit="10" points="359.207,139.322 311.721,254.797 297.689,269.637 
	144.442,269.637 144.442,287.174 159.282,299.585 309.023,299.585 310.777,302.553 310.643,311.457 308.079,315.505 
	157.596,315.505 134.527,289.805 134.527,269.771 121.577,257.832 98.711,137.029 113.078,135.208 131.087,244.275 136.753,251.559 
	293.645,251.289 347.875,135.208 "/>
<polygon fill="#FFFFFF" stroke="#000000" stroke-miterlimit="10" points="8.476,35.987 63.771,35.987 109.638,103.438 
	368.648,104.518 374.585,109.914 374.585,136.624 369.998,142.02 88.054,142.02 80.499,135.275 80.499,111.532 89.133,103.168 
	65.39,57.032 8.476,62.698 2,59.19 2,40.304 "/>
<g>
	<path fill="#FFFFFF" stroke="#000000" stroke-miterlimit="10" d="M276.045,310.104c-13.031,0-23.604,11-23.604,24.56
		c0,13.559,10.572,24.55,23.604,24.55c13.039,0,23.609-10.991,23.609-24.55C299.654,321.104,289.084,310.104,276.045,310.104z
		 M276.045,347.88c-7.018,0-12.708-5.916-12.708-13.218c0-7.301,5.69-13.227,12.708-13.227c7.025,0,12.717,5.926,12.717,13.227
		C288.762,341.964,283.07,347.88,276.045,347.88z"/>
	<path fill="#FFFFFF" stroke="#000000" stroke-miterlimit="10" d="M176.275,310.104c-13.031,0-23.603,11-23.603,24.56
		c0,13.559,10.572,24.55,23.603,24.55c13.04,0,23.61-10.991,23.61-24.55C199.887,321.104,189.315,310.104,176.275,310.104z
		 M176.275,347.88c-7.017,0-12.708-5.916-12.708-13.218c0-7.301,5.69-13.227,12.708-13.227c7.025,0,12.717,5.926,12.717,13.227
		C188.992,341.964,183.301,347.88,176.275,347.88z"/>
</g>
</svg>
