<?xml version="1.0" encoding="utf-8"?>
<!-- Generator: Adobe Illustrator 16.0.0, SVG Export Plug-In . SVG Version: 6.00 Build 0)  -->
<!DOCTYPE svg PUBLIC "-//W3C//DTD SVG 1.1//EN" "http://www.w3.org/Graphics/SVG/1.1/DTD/svg11.dtd">
<svg version="1.1" id="Capa_1" xmlns="http://www.w3.org/2000/svg" xmlns:xlink="http://www.w3.org/1999/xlink" x="0px" y="0px"
	 width="400px" height="400px" viewBox="0 0 400 400" enable-background="new 0 0 400 400" xml:space="preserve">
<g>
	<path fill="#70A83B" d="M118.882,249.437c23.176,20.429,46.354,117.758,132.106,98.188
		c85.84-19.541,127.969-113.832,116.715-162.536c-11.254-48.706-78.922-25.149-78.922-25.149
		c9.146-17.065,19.822-66.5-25.178-97.729c-44.906-31.197-60.508,41.061-67.07,58.77c-6.535,17.63-47.313,38.701-47.313,38.701
		s-0.639-0.31-1.826-0.919c-0.883,15.491-3.963,31.396-10.054,47.364C120.905,249.198,138.241,216.507,118.882,249.437z"/>
	<path fill="#FFFFFF" d="M118.882,249.437c3.836,3.413,6.817,7.654,9.654,11.903c2.82,4.28,5.441,8.685,8.058,13.084
		c5.198,8.82,10.365,17.659,16.113,26.107c5.729,8.449,12.024,16.537,19.25,23.706c7.227,7.139,15.424,13.357,24.588,17.652
		c9.109,4.383,19.131,6.757,29.215,7.111c10.113,0.377,20.193-1.184,29.998-3.87c9.766-2.65,19.271-6.399,28.234-11.125
		c8.971-4.725,17.418-10.424,25.213-16.9c7.801-6.475,14.936-13.736,21.383-21.557c6.455-7.813,12.205-16.213,17.188-25.041
		c4.968-8.836,9.166-18.104,12.474-27.676c3.276-9.574,5.672-19.463,6.789-29.483c1.063-10.004,0.933-20.193-1.646-29.836
		c-1.306-4.673-3.377-9.233-6.338-13.05c-2.951-3.835-6.771-6.961-11.119-9.157c-4.34-2.217-9.125-3.599-14.021-4.351
		c-4.904-0.749-9.922-0.906-14.928-0.67c-5.008,0.251-10.012,0.886-14.963,1.821c-4.931,0.942-9.906,2.133-14.599,3.674
		l-4.631,1.522l2.269-4.289c2.617-4.947,4.438-10.443,5.744-15.997c1.295-5.572,2.018-11.283,2.153-17.001
		c0.131-5.718-0.332-11.447-1.476-17.037c-1.125-5.595-2.944-11.038-5.399-16.18c-2.457-5.142-5.586-9.958-9.231-14.349
		c-3.65-4.395-7.822-8.354-12.345-11.885c-2.264-1.752-4.62-3.438-7.041-4.907c-2.393-1.45-4.938-2.731-7.549-3.676
		c-5.207-1.933-10.897-2.383-16.069-0.65c-5.187,1.698-9.679,5.29-13.359,9.551c-3.703,4.279-6.729,9.201-9.355,14.321
		c-2.633,5.126-4.857,10.486-6.891,15.923c-2.039,5.439-3.848,10.975-5.631,16.548c-0.914,2.797-1.754,5.566-2.867,8.417
		c-1.229,2.956-3.018,5.452-4.941,7.781c-3.896,4.622-8.434,8.494-13.107,12.111c-4.693,3.601-9.584,6.898-14.575,10.02
		c-5.005,3.112-10.079,6.052-15.322,8.792l-0.57,0.298l-0.556-0.282l-1.85-0.94l1.818-1.04l-0.484,6.028l-0.704,6.007l-0.928,5.978
		l-1.153,5.936l-1.379,5.888l-1.603,5.829l-1.833,5.76l-2.056,5.685c-1.427,3.745-2.947,7.433-4.348,11.174
		c-1.394,3.736-2.793,7.49-3.838,11.303c-0.25,0.956-0.473,1.901-0.568,2.862c-0.02,0.469-0.183,1.173-0.451,1.608
		c-0.246,0.473-0.515,0.893-0.778,1.324l-3.216,5.075L118.882,249.437z M118.882,249.437c1.937-3.504,3.876-7.008,5.862-10.485
		l3.001-5.196c0.24-0.432,0.492-0.867,0.691-1.292c0.22-0.444,0.271-0.739,0.293-1.271c0.062-1.035,0.258-2.055,0.474-3.043
		c0.91-3.952,2.16-7.765,3.405-11.581l1.941-5.698c0.646-1.901,1.354-3.77,2.023-5.656l1.977-5.625l1.757-5.697l1.527-5.763
		l1.307-5.813l1.083-5.86l0.86-5.896l0.641-5.924l0.422-5.943l0.134-1.878l1.685,0.839l1.802,0.896l-1.124,0.016
		c5.106-2.729,10.143-5.704,15.05-8.82c4.905-3.128,9.7-6.428,14.264-9.996c4.541-3.576,8.922-7.405,12.537-11.78
		c1.781-2.184,3.398-4.537,4.393-7.012c0.996-2.61,1.838-5.453,2.715-8.229c3.451-11.185,7.128-22.451,12.525-33.057
		c2.695-5.29,5.82-10.435,9.77-15.029c3.922-4.562,8.865-8.623,14.863-10.614c5.99-2.039,12.631-1.488,18.354,0.631
		c2.896,1.041,5.607,2.397,8.224,3.972c2.586,1.564,5.002,3.283,7.371,5.104c4.717,3.658,9.097,7.786,12.94,12.388
		c3.845,4.6,7.156,9.665,9.765,15.079c2.604,5.414,4.543,11.15,5.741,17.03c1.222,5.876,1.724,11.888,1.605,17.87
		c-0.125,5.984-0.863,11.95-2.199,17.785c-1.359,5.83-3.215,11.554-6.058,16.977l-2.36-2.767c5.032-1.663,10.028-2.887,15.153-3.854
		c5.111-0.95,10.289-1.594,15.509-1.839c5.217-0.23,10.481-0.056,15.7,0.757c5.209,0.817,10.388,2.313,15.168,4.771
		c4.783,2.434,9.076,5.955,12.354,10.248c3.303,4.303,5.531,9.239,6.955,14.42c1.348,5.062,2.045,10.332,2.252,15.542
		c0.227,5.226-0.041,10.441-0.604,15.608c-1.185,10.335-3.672,20.456-7.053,30.235c-3.41,9.773-7.724,19.217-12.815,28.213
		c-10.203,17.969-23.55,34.223-39.599,47.289c-8.011,6.536-16.683,12.271-25.875,17.007c-9.195,4.739-18.884,8.465-28.901,11.086
		c-9.943,2.631-20.347,4.155-30.72,3.67c-10.362-0.456-20.672-2.998-29.977-7.582c-9.34-4.548-17.596-11.021-24.807-18.357
		c-7.212-7.37-13.43-15.614-19.06-24.186c-5.646-8.571-10.692-17.499-15.755-26.394c-2.527-4.45-5.058-8.898-7.786-13.225
		C125.534,257.209,122.648,252.925,118.882,249.437z"/>
</g>
<g>
	
		<image overflow="visible" enable-background="new    " width="1054" height="996" xlink:href="6A15A90F.png"  transform="matrix(0.2386 0 0 0.2388 110.5996 93.9509)">
	</image>
</g>
<g>
	<path fill="#BF0411" stroke="#FFFFFF" d="M103.844,40.232c-2.862,6.099-10.135,8.721-16.233,5.86
		c-6.103-2.868-8.723-10.139-5.86-16.237c2.864-6.098,10.136-8.723,16.236-5.859C104.087,26.859,106.71,34.13,103.844,40.232z"/>
	<path fill="none" stroke="#FFFFFF" d="M104.106,41.813c0,0-0.107,0.206-0.308,0.592c-0.092,0.198-0.237,0.423-0.414,0.686
		c-0.162,0.273-0.388,0.558-0.641,0.876c-1.004,1.259-2.865,2.88-5.721,3.592c-1.417,0.328-3.064,0.387-4.776,0.01
		c-0.436-0.116-0.82-0.215-1.31-0.403c-0.387-0.163-0.748-0.273-1.202-0.54c-0.895-0.462-1.646-1.024-2.38-1.727
		c-0.721-0.7-1.332-1.535-1.862-2.444c-0.504-0.924-0.869-1.943-1.09-3.011c-0.208-1.071-0.24-2.188-0.116-3.295
		c0.083-0.551,0.168-1.105,0.344-1.638c0.077-0.271,0.152-0.54,0.263-0.797l0.155-0.39l0.079-0.195l0.04-0.097l0.02-0.049
		l0.01-0.024l0.055-0.113c0.348-0.703,1.097-1.923,1.837-2.675c0.776-0.801,1.651-1.494,2.61-2.018
		c0.96-0.517,1.983-0.879,3.014-1.088c1.04-0.172,2.074-0.234,3.074-0.125c1.986,0.203,3.828,1.033,5.149,2.043
		c1.453,1.118,2.408,2.396,3.077,3.708c1.272,2.655,1.21,5.123,0.883,6.699c-0.084,0.398-0.159,0.754-0.265,1.053
		c-0.089,0.303-0.17,0.559-0.264,0.756C104.196,41.599,104.106,41.813,104.106,41.813z M104.106,41.813c0,0,0.086-0.215,0.247-0.62
		c0.089-0.199,0.165-0.456,0.248-0.76c0.098-0.301,0.174-0.654,0.227-1.057c0.106-0.798,0.166-1.793-0.07-2.889
		c-0.216-1.09-0.677-2.284-1.479-3.357c-0.413-0.524-0.862-1.05-1.41-1.494c-0.528-0.462-1.182-0.826-1.782-1.123
		c-1.392-0.656-2.865-0.888-4.359-0.765c-1.488,0.128-2.921,0.691-4.139,1.523c-0.603,0.43-1.143,0.935-1.626,1.484
		c-0.495,0.63-0.751,0.983-1.231,1.941c0.087-0.173,0.021-0.039,0.038-0.074l-0.007,0.017l-0.013,0.031l-0.026,0.063l-0.053,0.127
		l-0.108,0.254c-0.082,0.167-0.13,0.344-0.184,0.521c-0.124,0.348-0.187,0.708-0.275,1.065c-0.112,0.726-0.163,1.463-0.107,2.203
		c0.133,1.47,0.614,2.937,1.469,4.164c0.426,0.588,0.936,1.208,1.463,1.635c0.222,0.233,0.617,0.47,0.947,0.7
		c0.246,0.165,0.618,0.362,0.928,0.521c1.32,0.628,2.761,0.874,4.094,0.795c1.338-0.069,2.552-0.479,3.529-1.009
		c0.993-0.519,1.721-1.2,2.267-1.792c0.276-0.297,0.5-0.582,0.668-0.848c0.181-0.258,0.331-0.48,0.426-0.676
		C103.995,42.016,104.106,41.813,104.106,41.813z"/>
</g>
<g>
	<circle fill="#BF0411" stroke="#FFFFFF" cx="88.404" cy="342.342" r="11.485"/>
	<path fill="#FFFFFF" stroke="#FFFFFF" d="M77.164,344.702c0,0,0.076,0.272,0.214,0.783c0.058,0.258,0.173,0.563,0.316,0.918
		c0.125,0.361,0.31,0.76,0.552,1.188c0.481,0.851,1.15,1.859,2.179,2.752c1.006,0.897,2.327,1.722,3.89,2.176
		c1.555,0.467,3.326,0.577,5.061,0.204c0.412-0.101,0.906-0.231,1.243-0.356c0.454-0.18,0.987-0.351,1.315-0.563
		c0.742-0.357,1.518-0.948,2.187-1.525c1.353-1.21,2.331-2.809,2.9-4.511c0.272-0.859,0.418-1.746,0.489-2.634
		c-0.005-0.448,0.022-0.891-0.028-1.338c-0.014-0.223-0.022-0.444-0.072-0.665l-0.058-0.33l-0.027-0.166l-0.013-0.083l-0.006-0.04
		l-0.002-0.021c0.011,0.045-0.03-0.131,0.024,0.098c-0.3-1.268-0.505-1.758-0.914-2.64c-0.419-0.785-0.916-1.533-1.507-2.21
		c-1.208-1.323-2.744-2.389-4.468-2.955c-1.732-0.563-3.54-0.7-5.367-0.314c-0.792,0.182-1.667,0.431-2.42,0.829
		c-0.772,0.372-1.449,0.867-2.084,1.373c-1.247,1.045-2.125,2.327-2.686,3.557c-0.583,1.229-0.792,2.422-0.888,3.395
		c-0.051,0.489-0.059,0.931-0.026,1.312c0.012,0.382,0.029,0.707,0.08,0.968C77.123,344.425,77.164,344.702,77.164,344.702z
		 M77.164,344.702c0,0-0.047-0.277-0.135-0.8c-0.056-0.258-0.08-0.582-0.101-0.968c-0.042-0.382-0.032-0.821-0.019-1.317
		c0.052-1.954,0.668-4.887,2.914-7.671c1.155-1.361,2.642-2.608,4.672-3.522c1.844-0.826,4.252-1.292,6.657-0.979
		c1.212,0.15,2.417,0.514,3.598,1.006c1.162,0.533,2.269,1.247,3.26,2.129c0.987,0.885,1.828,1.948,2.521,3.112
		c0.665,1.096,1.21,2.746,1.423,3.675l0.033,0.148l0.005,0.03l0.009,0.064l0.02,0.126l0.039,0.252l0.075,0.504
		c0.06,0.335,0.074,0.676,0.089,1.015c0.059,0.68,0.006,1.358-0.051,2.033c-0.162,1.345-0.511,2.655-1.058,3.864
		c-0.56,1.198-1.275,2.302-2.129,3.253c-0.88,0.927-1.836,1.744-2.885,2.369c-1.063,0.625-2.108,1.08-3.296,1.377
		c-0.611,0.188-1.067,0.219-1.57,0.303c-0.633,0.085-1.114,0.096-1.662,0.111c-2.129-0.031-4.059-0.562-5.643-1.344
		c-3.178-1.64-4.924-4.074-5.76-5.844c-0.209-0.449-0.398-0.848-0.513-1.215c-0.135-0.359-0.245-0.667-0.298-0.927
		C77.233,344.976,77.164,344.702,77.164,344.702z"/>
</g>
<g>
	<path fill="#FFFFFF" d="M104.106,41.813c0,0,0.551,0.014,1.49,0.155c0.94,0.135,2.265,0.403,3.817,0.857
		c1.55,0.458,3.32,1.116,5.142,2.004c0.914,0.438,1.838,0.938,2.752,1.491c0.921,0.545,1.819,1.165,2.703,1.811
		c0.866,0.673,1.728,1.356,2.509,2.117c0.801,0.734,1.523,1.54,2.186,2.35c0.662,0.81,1.233,1.656,1.728,2.483
		c0.24,0.42,0.454,0.842,0.66,1.245c0.191,0.414,0.357,0.825,0.516,1.213c0.287,0.797,0.499,1.54,0.612,2.216
		c0.162,0.656,0.16,1.267,0.202,1.74c0.029,0.48-0.032,0.867-0.037,1.119c-0.022,0.254-0.035,0.39-0.035,0.39
		s-0.249-0.475-0.686-1.305c-0.243-0.396-0.496-0.877-0.849-1.392c-0.326-0.523-0.761-1.072-1.208-1.662
		c-0.466-0.583-0.991-1.189-1.567-1.807c-0.586-0.611-1.216-1.237-1.896-1.86c-1.36-1.247-2.897-2.496-4.498-3.693
		c-3.198-2.398-6.622-4.635-9.205-6.404c-1.29-0.888-2.375-1.644-3.137-2.19C104.542,42.148,104.106,41.813,104.106,41.813z"/>
</g>
<g>
	<path fill="#FFFFFF" d="M77.214,342.443c0,0-0.387,0.15-1.064,0.414c-0.333,0.115-0.729,0.303-1.178,0.458
		c-0.439,0.182-0.935,0.386-1.476,0.609c-0.529,0.233-1.1,0.453-1.677,0.736c-0.591,0.244-1.176,0.565-1.786,0.86
		c-0.603,0.309-1.195,0.665-1.798,1.004c-0.559,0.405-1.197,0.712-1.712,1.172l-0.834,0.61c-0.241,0.242-0.5,0.462-0.752,0.688
		c-0.538,0.425-0.953,0.944-1.414,1.416c-0.495,0.446-0.811,1.007-1.219,1.48c-0.426,0.468-0.714,0.989-1.024,1.461
		c-0.162,0.237-0.316,0.464-0.463,0.681c-0.167,0.213-0.306,0.425-0.405,0.639c-0.212,0.42-0.439,0.783-0.62,1.092
		c-0.366,0.613-0.625,0.975-0.625,0.975s-0.083-0.408-0.142-1.141c-0.026-0.366-0.067-0.819-0.066-1.337
		c-0.04-0.528,0.096-1.09,0.188-1.729c0.112-0.634,0.224-1.337,0.529-2.021c0.293-0.686,0.524-1.472,1.011-2.146
		c0.448-0.695,0.892-1.451,1.529-2.059c0.301-0.318,0.599-0.648,0.918-0.959l1.047-0.821c0.694-0.563,1.488-0.952,2.248-1.366
		c0.379-0.207,0.787-0.336,1.177-0.492c0.393-0.146,0.771-0.315,1.17-0.397c0.781-0.211,1.537-0.389,2.267-0.462
		c0.723-0.109,1.416-0.116,2.046-0.121c1.269,0.031,2.307,0.198,3.022,0.391C76.826,342.256,77.214,342.443,77.214,342.443z"/>
</g>
<g>
	<path fill="#FFFFFF" stroke="#FFFFFF" d="M98.09,9.904c0,0,1.086,1.248,2.992,3.696c1.894,2.455,4.654,6.081,7.906,10.882
		c3.253,4.799,7.076,10.727,11.062,17.771c2.013,3.512,4.044,7.313,6.136,11.35c2.043,4.06,4.109,8.376,6.106,12.955
		c2.043,4.56,3.962,9.403,5.871,14.452c1.854,5.066,3.61,10.372,5.18,15.901c0.392,1.383,0.785,2.775,1.182,4.178
		c0.354,1.413,0.712,2.837,1.071,4.27c0.762,2.854,1.316,5.796,1.979,8.748c1.17,5.937,2.148,12.058,2.743,18.335
		c0.703,6.268,0.92,12.69,0.98,19.195c-0.038,1.627-0.077,3.259-0.115,4.896l-0.064,2.527l-0.155,2.407
		c-0.165,3.169-0.564,6.552-0.944,9.878c-1.734,13.186-5.072,26.44-10.109,38.978c-1.232,3.063-2.465,6.126-3.695,9.187
		c-0.623,1.529-1.218,3.062-1.862,4.587l-1.988,4.569c-1.325,3.043-2.646,6.08-3.965,9.108c-1.306,3.036-2.748,5.973-4.108,8.946
		c-1.381,2.961-2.757,5.909-4.126,8.844c-1.451,2.894-2.895,5.771-4.329,8.634c-2.82,5.748-5.816,11.314-8.707,16.817
		c-0.726,1.373-1.449,2.74-2.169,4.104c-0.743,1.35-1.482,2.693-2.218,4.03c-1.466,2.677-2.933,5.318-4.398,7.926
		c-2.947,5.203-5.93,10.236-8.778,15.164c-1.467,2.438-2.915,4.844-4.341,7.213c-0.712,1.186-1.42,2.359-2.122,3.525
		c-0.352,0.583-0.702,1.163-1.05,1.741c-0.373,0.58-0.744,1.157-1.113,1.732c-2.9,4.485-5.701,8.819-8.391,12.979
		c-2.694,4.158-5.275,8.144-7.731,11.933c-2.489,3.771-5.027,7.258-7.315,10.579c-4.635,6.611-8.613,12.408-12.133,17.008
		c-3.457,4.645-6.189,8.274-8.092,10.723c-1.923,2.431-2.949,3.727-2.949,3.727s0.897-1.388,2.58-3.99
		c1.695-2.59,4.049-6.481,7.166-11.343c0.773-1.219,1.588-2.503,2.443-3.85c0.851-1.35,1.69-2.793,2.593-4.279
		c1.806-2.971,3.76-6.184,5.847-9.615c2.07-3.442,4.362-7.034,6.612-10.948c2.261-3.908,4.638-8.019,7.118-12.308
		c2.484-4.286,5.073-8.75,7.751-13.371c2.594-4.553,5.261-9.442,8.009-14.367c2.659-4.995,5.446-10.096,8.19-15.363
		c2.667-5.307,5.62-10.607,8.327-16.148c2.751-5.52,5.605-11.102,8.278-16.854c1.361-2.862,2.73-5.744,4.107-8.641
		c1.334-2.913,2.675-5.842,4.021-8.781c1.322-2.946,2.739-5.881,3.997-8.867c1.274-2.981,2.552-5.974,3.831-8.971l1.922-4.498
		c0.627-1.514,1.217-3.061,1.827-4.591c1.212-3.067,2.426-6.138,3.64-9.209c4.897-11.947,8.14-24.483,9.89-37.057
		c0.382-3.128,0.756-6.178,0.983-9.441l0.205-2.403l0.101-2.282c0.07-1.565,0.141-3.127,0.21-4.686
		c0.069-6.233-0.004-12.411-0.557-18.467c-0.967-12.117-3.021-23.765-5.741-34.634c-2.716-10.874-6.048-20.984-9.555-30.16
		c-3.53-9.169-7.198-17.427-10.729-24.616c-3.545-7.182-6.853-13.351-9.729-18.347c-2.895-4.985-5.265-8.856-6.952-11.45
		C99.038,11.259,98.09,9.904,98.09,9.904z"/>
</g>
<g>
	<g>
		<path fill="#FFFFFF" d="M142.288,220.738c0,0,0.524,0.051,1.508,0.146c0.983,0.075,2.426,0.185,4.262,0.323
			c1.836,0.116,4.064,0.242,6.619,0.349c2.554,0.112,5.437,0.155,8.574,0.211c3.141,0.001,6.539-0.015,10.126-0.135
			c3.59-0.093,7.363-0.366,11.26-0.637c3.893-0.338,7.902-0.78,11.951-1.371c4.059-0.539,8.139-1.337,12.191-2.213
			c2.02-0.473,4.043-0.931,6.039-1.455c0.992-0.278,1.983-0.559,2.973-0.837l1.48-0.417l1.453-0.478
			c1.934-0.646,3.866-1.239,5.729-1.962c0.938-0.347,1.867-0.689,2.793-1.031c0.906-0.385,1.805-0.768,2.697-1.146
			c0.889-0.387,1.783-0.747,2.646-1.146c0.856-0.416,1.705-0.829,2.545-1.237c0.837-0.414,1.688-0.782,2.486-1.221
			c0.799-0.441,1.588-0.878,2.366-1.309c0.773-0.438,1.558-0.842,2.298-1.289c0.729-0.462,1.45-0.916,2.157-1.362
			c0.716-0.442,1.416-0.878,2.104-1.306c0.677-0.445,1.31-0.925,1.947-1.371c2.58-1.757,4.771-3.594,6.758-5.188
			c0.994-0.798,1.813-1.661,2.647-2.385c0.813-0.746,1.578-1.417,2.24-2.053c1.254-1.333,2.279-2.356,2.965-3.068
			c0.689-0.709,1.06-1.087,1.06-1.087s-0.312,0.425-0.894,1.223c-0.588,0.794-1.43,1.98-2.551,3.459
			c-1.207,1.397-2.648,3.14-4.436,5.012c-0.928,0.906-1.914,1.87-2.953,2.889c-0.262,0.253-0.521,0.517-0.797,0.768
			c-0.287,0.239-0.576,0.481-0.869,0.728c-0.586,0.489-1.188,0.991-1.801,1.505c-0.617,0.508-1.232,1.05-1.889,1.56
			c-0.673,0.491-1.357,0.992-2.054,1.502c-0.7,0.505-1.414,1.019-2.14,1.539c-0.735,0.503-1.518,0.962-2.29,1.456
			c-0.779,0.488-1.568,0.982-2.367,1.483c-0.804,0.497-1.653,0.925-2.494,1.398c-0.851,0.46-1.707,0.926-2.573,1.395
			c-0.88,0.442-1.787,0.846-2.691,1.275c-0.91,0.423-1.828,0.849-2.75,1.277c-0.943,0.384-1.893,0.771-2.848,1.16
			c-0.959,0.375-1.904,0.813-2.896,1.14c-0.986,0.337-1.979,0.676-2.974,1.017l-1.496,0.51l-1.521,0.446
			c-1.017,0.298-2.032,0.597-3.055,0.896c-2.052,0.562-4.125,1.063-6.199,1.562c-4.176,0.856-8.371,1.628-12.531,2.135
			c-4.15,0.588-8.268,0.817-12.24,1.059c-3.979,0.182-7.826,0.212-11.469,0.112c-3.645-0.048-7.081-0.3-10.245-0.548
			c-3.163-0.271-6.054-0.602-8.604-0.967c-2.555-0.334-4.766-0.741-6.583-1.069C144.327,221.287,142.288,220.738,142.288,220.738z"
			/>
	</g>
	<g>
		<path fill="#FFFFFF" d="M241.148,116.738c0,0,0.113,0.493,0.324,1.418c0.198,0.928,0.5,2.29,0.791,4.039
			c0.299,1.747,0.635,3.877,0.918,6.334c0.276,2.456,0.58,5.235,0.725,8.28c0.193,3.044,0.268,6.352,0.225,9.854
			c-0.094,3.499-0.201,7.202-0.648,11.011c-0.375,3.813-0.981,7.743-1.801,11.7c-0.926,3.936-1.924,7.935-3.358,11.81
			c-1.363,3.896-3.166,7.639-5.087,11.234c-2.053,3.529-4.313,6.882-6.897,9.804c-0.639,0.733-1.272,1.463-1.899,2.184
			c-0.691,0.662-1.377,1.318-2.055,1.968c-0.697,0.626-1.318,1.318-2.056,1.867c-0.72,0.565-1.431,1.124-2.133,1.675
			c-1.361,1.151-2.854,2.042-4.267,2.938c-0.719,0.427-1.381,0.915-2.108,1.266c-0.722,0.359-1.429,0.712-2.119,1.058
			c-0.69,0.344-1.367,0.68-2.026,1.009c-0.662,0.325-1.354,0.544-2.009,0.798c-1.317,0.484-2.56,0.96-3.731,1.37
			c-2.417,0.629-4.495,1.232-6.243,1.56c-1.758,0.291-3.141,0.476-4.076,0.617c-0.938,0.138-1.438,0.211-1.438,0.211
			s0.486-0.146,1.395-0.421c0.91-0.269,2.234-0.688,3.922-1.166c0.852-0.209,1.736-0.644,2.729-1.003
			c0.984-0.375,2.049-0.779,3.186-1.213c1.092-0.531,2.252-1.098,3.478-1.692c0.602-0.314,1.252-0.564,1.862-0.932
			c0.608-0.367,1.231-0.742,1.869-1.125c0.633-0.382,1.28-0.771,1.94-1.167c0.666-0.387,1.263-0.908,1.912-1.367
			c1.273-0.954,2.652-1.852,3.873-3.027c0.633-0.557,1.273-1.121,1.922-1.691c0.664-0.554,1.213-1.247,1.834-1.873
			c0.604-0.646,1.222-1.291,1.849-1.937c0.567-0.699,1.142-1.406,1.719-2.12c2.363-2.812,4.298-6.098,6.236-9.426
			c1.776-3.429,3.444-6.995,4.713-10.731c1.414-3.681,2.416-7.519,3.354-11.301c0.805-3.816,1.608-7.584,2.076-11.291
			c0.528-3.693,0.872-7.297,1.155-10.72c0.207-3.428,0.397-6.678,0.451-9.686c0.069-3.007,0.057-5.77,0.03-8.22
			c-0.055-2.448-0.106-4.59-0.194-6.351c-0.095-1.761-0.151-3.149-0.228-4.094C241.189,117.243,241.148,116.738,241.148,116.738z"/>
	</g>
	<g>
		<path fill="#FFFFFF" d="M275.4,274.995c0,0-0.002,0.202,0.027,0.59c0.03,0.388,0.098,0.961,0.262,1.682
			c0.153,0.716,0.391,1.596,0.869,2.495c0.446,0.906,1.147,1.834,2.159,2.484c1.982,1.388,5.226,1.438,8.775,0.544
			c0.889-0.226,1.813-0.475,2.756-0.783c0.233-0.078,0.472-0.159,0.711-0.239l0.356-0.121l0.09-0.031l0.046-0.015
			c0.092-0.032-0.072,0.025-0.039,0.014l0.187-0.072c0.248-0.098,0.498-0.194,0.75-0.294l0.537-0.285
			c0.758-0.427,1.545-1.012,2.233-1.705c0.687-0.713,1.308-1.534,1.854-2.444c2.155-3.686,2.922-8.709,2.071-13.767
			c-0.813-5.076-3.178-10.213-6.729-14.691c-3.539-4.501-8.154-8.433-13.369-11.624c-5.207-3.227-11.01-5.694-16.971-7.677
			c-5.961-2.01-12.146-3.398-18.285-4.453c-6.148-1.024-12.269-1.724-18.219-2.108c-5.949-0.39-11.726-0.501-17.205-0.506
			c-5.48-0.021-10.665,0.229-15.452,0.435c-4.785,0.253-9.17,0.574-13.055,0.907c-1.941,0.173-3.76,0.334-5.439,0.483
			c-1.68,0.177-3.221,0.338-4.613,0.483c-2.792,0.263-4.974,0.558-6.468,0.716c-1.492,0.172-2.288,0.264-2.288,0.264
			s0.787-0.146,2.265-0.422c1.479-0.263,3.639-0.709,6.408-1.164c1.385-0.228,2.918-0.479,4.586-0.751
			c1.674-0.246,3.484-0.514,5.418-0.798c3.875-0.538,8.258-1.058,13.053-1.544c9.59-0.896,20.855-1.556,32.949-1.078
			c6.043,0.241,12.295,0.729,18.601,1.707c6.299,0.977,12.678,2.3,18.895,4.279c3.121,0.947,6.172,2.142,9.164,3.441
			c2.992,1.303,5.9,2.795,8.67,4.487c5.537,3.368,10.592,7.526,14.451,12.507c3.875,4.942,6.521,10.696,7.422,16.505
			c0.918,5.78,0.113,11.673-2.689,16.271c-0.707,1.141-1.524,2.191-2.453,3.119c-0.948,0.921-1.981,1.684-3.143,2.307
			c-0.311,0.147-0.617,0.297-0.924,0.443c-0.252,0.095-0.504,0.188-0.754,0.281l-0.188,0.069c0.004-0.001-0.193,0.066-0.134,0.045
			l-0.051,0.014l-0.101,0.026l-0.399,0.106c-0.265,0.071-0.526,0.143-0.789,0.212c-1.051,0.262-2.082,0.508-3.11,0.635
			c-2.052,0.274-4.043,0.356-5.9,0.022c-1.846-0.35-3.539-1.115-4.715-2.232c-1.172-1.125-1.785-2.438-2.096-3.559
			c-0.308-1.136-0.332-2.112-0.322-2.885c0.031-0.776,0.129-1.357,0.203-1.744S275.4,274.995,275.4,274.995z"/>
	</g>
</g>
</svg>
