<?xml version="1.0" encoding="utf-8"?>
<!-- Generator: Adobe Illustrator 17.0.0, SVG Export Plug-In . SVG Version: 6.00 Build 0)  -->
<!DOCTYPE svg PUBLIC "-//W3C//DTD SVG 1.1//EN" "http://www.w3.org/Graphics/SVG/1.1/DTD/svg11.dtd">
<svg version="1.1" xmlns="http://www.w3.org/2000/svg" xmlns:xlink="http://www.w3.org/1999/xlink" x="0px" y="0px" width="50px"
	 height="50px" viewBox="0 0 50 50" enable-background="new 0 0 50 50" xml:space="preserve">
<g id="Capa_1" display="none">
	<g id="Icono_2_-_Búsqueda" display="inline">
		
			<image overflow="visible" width="1300" height="1300" xlink:href="../../Downloads/66918773-búsqueda-de-iconos-plana-búsqueda-icono-del-diseño-icono-de-búsqueda-en-la-web-vidrio-de-aumento-de-vectores.jpg"  transform="matrix(0.0367 0 0 0.0367 1.1667 1.1667)">
		</image>
	</g>
</g>
<g id="mango">
	<path fill="#515151" stroke="#515151" stroke-linecap="round" stroke-linejoin="round" stroke-miterlimit="10" d="M36.437,31.726
		l-3.648,3.614l9.896,11.416c0,0,2.972,1.655,4.796-0.979c1.824-2.634,0-4.391,0-4.391L36.437,31.726z"/>
	<polygon fill="#515151" stroke="#515151" stroke-linecap="round" stroke-linejoin="round" stroke-miterlimit="10" points="
		33.906,29.513 35.035,30.527 31.691,34.073 30.543,32.79 	"/>
	
		<line fill="none" stroke="#515151" stroke-width="2" stroke-linecap="round" stroke-miterlimit="10" x1="29.276" y1="30.78" x2="32.012" y2="28.247"/>
</g>
<g id="circulo">
	<ellipse fill="none" stroke="#515151" stroke-width="3" stroke-miterlimit="10" cx="18.958" cy="17.477" rx="15.25" ry="14.899"/>
	<path fill="none" stroke="#515151" stroke-width="2" stroke-linecap="round" stroke-miterlimit="10" d="M7.896,17.477
		c0,0,0-10.936,11.062-11.252"/>
	<path fill="none" stroke="#515151" stroke-width="2" stroke-linecap="round" stroke-miterlimit="10" d="M21.947,28.247
		c0,0,5.269-1.621,7.971-7.701"/>
</g>
</svg>
