<?xml version="1.0" encoding="utf-8"?>
<!-- Generator: Adobe Illustrator 16.0.0, SVG Export Plug-In . SVG Version: 6.00 Build 0)  -->
<!DOCTYPE svg PUBLIC "-//W3C//DTD SVG 1.1//EN" "http://www.w3.org/Graphics/SVG/1.1/DTD/svg11.dtd">
<svg version="1.1" xmlns="http://www.w3.org/2000/svg" xmlns:xlink="http://www.w3.org/1999/xlink" x="0px" y="0px" width="50px"
	 height="50px" viewBox="0 0 50 50" enable-background="new 0 0 50 50" xml:space="preserve">
<g id="Capa_2">
	<path fill="#A14A17" stroke="#F2F2F2" stroke-miterlimit="10" d="M25.25,2.13C12.13,2.13,1.5,12.31,1.5,24.88
		c0,12.561,10.63,22.74,23.75,22.74S49,37.44,49,24.88C49,12.31,38.37,2.13,25.25,2.13z M25.25,44.12c-11.1,0-20.1-8.61-20.1-19.24
		c0-10.64,9-19.25,20.1-19.25c11.1,0,20.1,8.61,20.1,19.25C45.35,35.51,36.35,44.12,25.25,44.12z"/>
	<path fill="#511730" stroke="#F2F2F2" stroke-miterlimit="10" d="M46.1,24.88c0,11.026-9.336,19.958-20.85,19.958
		c-11.514,0-20.85-8.932-20.85-19.958c0-11.037,9.336-19.968,20.85-19.968C36.764,4.912,46.1,13.843,46.1,24.88z"/>
</g>
<g id="Capa_3">
	<path fill="#FEFFFC" stroke="#F2F2F2" stroke-miterlimit="10" d="M41.553,24.88c0,1.13-0.457,2.141-1.195,2.88
		c-0.74,0.729-1.75,1.185-2.881,1.185h-8.151v8.151c0,2.261-1.825,4.086-4.075,4.086c-1.119,0-2.141-0.456-2.88-1.195
		c-0.739-0.739-1.196-1.761-1.196-2.891v-8.151h-8.151c-2.25,0-4.076-1.814-4.076-4.065c0-1.13,0.457-2.152,1.196-2.891
		c0.739-0.739,1.75-1.196,2.88-1.196h8.151v-8.151c0-2.25,1.826-4.075,4.076-4.075c1.12,0,2.141,0.456,2.881,1.195
		c0.738,0.739,1.194,1.75,1.194,2.88v8.151h8.151C39.727,20.794,41.553,22.62,41.553,24.88z"/>
</g>
</svg>
