<?xml version="1.0" encoding="utf-8"?>
<!-- Generator: Adobe Illustrator 16.0.0, SVG Export Plug-In . SVG Version: 6.00 Build 0)  -->
<!DOCTYPE svg PUBLIC "-//W3C//DTD SVG 1.1//EN" "http://www.w3.org/Graphics/SVG/1.1/DTD/svg11.dtd">
<svg version="1.1" xmlns="http://www.w3.org/2000/svg" xmlns:xlink="http://www.w3.org/1999/xlink" x="0px" y="0px" width="50px"
	 height="50px" viewBox="0 0 50 50" enable-background="new 0 0 50 50" xml:space="preserve">
<g id="Capa_2">
	<path fill="#8E443D" stroke="#FBB03B" stroke-width="2" stroke-miterlimit="10" d="M49.473,37.539c0,6.627-5.28,12-11.792,12
		H12.649c-6.513,0-11.792-5.373-11.792-12V12.48c0-6.627,5.28-12,11.792-12h25.032c6.512,0,11.792,5.373,11.792,12V37.539z"/>
</g>
<g id="Capa_1">
	<g id="Capa_3">
		<path fill="#FEFFFC" stroke="#F2F2F2" stroke-miterlimit="10" d="M41.553,24.88c0,1.13-0.457,2.142-1.195,2.88
			c-0.739,0.729-1.75,1.186-2.881,1.186h-8.15v8.15c0,2.262-1.825,4.086-4.075,4.086c-1.119,0-2.141-0.455-2.88-1.195
			c-0.739-0.738-1.196-1.76-1.196-2.891v-8.15h-8.151c-2.25,0-4.076-1.814-4.076-4.065c0-1.13,0.457-2.152,1.196-2.891
			c0.739-0.739,1.75-1.196,2.88-1.196h8.151v-8.151c0-2.25,1.826-4.075,4.076-4.075c1.12,0,2.142,0.456,2.881,1.195
			c0.738,0.739,1.194,1.75,1.194,2.88v8.151h8.15C39.727,20.794,41.553,22.62,41.553,24.88z"/>
	</g>
</g>
</svg>
